# xmcd
# 
# Track frame offsets:
#     150
#     15905
#     36396
#     56501
#     80955
#     103773
#     120747
#     142159
#     165904
#     190313
#     211754
#     228207
#     252038
# 
# Disc length: 3774
# 
# Revision: 0
# Processed by: cddbd v1.5.2PL0 Copyright (c) Steve Scherf et al.
# Submitted via: fre:ac v1.0.31
# 
DISCID=aa0ebc0d
DTITLE=rolling stones - Bridges to Babylon
DYEAR=1992
DGENRE=rock
TTITLE0=Flip the switch
TTITLE1=Anybody seen my baby?
TTITLE2=Low down
TTITLE3=Already over me
TTITLE4=Gunface
TTITLE5=You don't have to mean it
TTITLE6=Out of control
TTITLE7=Saint of me
TTITLE8=Might as well get juiced
TTITLE9=Always suffering
TTITLE10=Too tight
TTITLE11=Thief in the night
TTITLE12=How can I stop
EXTD=
EXTT0=
EXTT1=
EXTT2=
EXTT3=
EXTT4=
EXTT5=
EXTT6=
EXTT7=
EXTT8=
EXTT9=
EXTT10=
EXTT11=
EXTT12=
PLAYORDER=
